<?xml version="1.0" encoding="UTF-8"?>
<!--Generator: Custom SF Symbol - Mesh Radio-->
<!DOCTYPE svg
PUBLIC "-//W3C//DTD SVG 1.1//EN"
       "http://www.w3.org/Graphics/SVG/1.1/DTD/svg11.dtd">
<svg version="1.1" xmlns="http://www.w3.org/2000/svg" xmlns:xlink="http://www.w3.org/1999/xlink" viewBox="0 0 3300 2200">
 <!--glyph: "mesh.radio", point size: 100.0, template writer version: "138.0.0"-->
 <style>.monochrome-0 {-sfsymbols-motion-group:0;-sfsymbols-layer-tags:-a1b2c3d4e5f60001}

.multicolor-0:tintColor {-sfsymbols-motion-group:0;-sfsymbols-layer-tags:-a1b2c3d4e5f60001}

.hierarchical-0:primary {-sfsymbols-motion-group:0;-sfsymbols-layer-tags:-a1b2c3d4e5f60001}

.SFSymbolsPreviewWireframe {fill:none;opacity:1.0;stroke:black;stroke-width:0.5}
</style>
 <g id="Notes">
  <rect height="2200" id="artboard" style="fill:white;opacity:1" width="3300" x="0" y="0"/>
  <line style="fill:none;stroke:black;opacity:1;stroke-width:0.5;" x1="263" x2="3036" y1="292" y2="292"/>
  <text style="stroke:none;fill:black;font-family:sans-serif;font-size:13;font-weight:bold;" transform="matrix(1 0 0 1 263 322)">Weight/Scale Variations</text>
  <text style="stroke:none;fill:black;font-family:sans-serif;font-size:13;text-anchor:middle;" transform="matrix(1 0 0 1 559.711 322)">Ultralight</text>
  <text style="stroke:none;fill:black;font-family:sans-serif;font-size:13;text-anchor:middle;" transform="matrix(1 0 0 1 1449.84 322)">Regular</text>
  <text style="stroke:none;fill:black;font-family:sans-serif;font-size:13;text-anchor:middle;" transform="matrix(1 0 0 1 2933.4 322)">Black</text>
  <line style="fill:none;stroke:black;opacity:1;stroke-width:0.5;" x1="263" x2="3036" y1="1903" y2="1903"/>
  <text id="template-version" style="stroke:none;fill:black;font-family:sans-serif;font-size:13;text-anchor:end;" transform="matrix(1 0 0 1 3036 1933)">Template v.6.0</text>
  <text style="stroke:none;fill:black;font-family:sans-serif;font-size:13;text-anchor:end;" transform="matrix(1 0 0 1 3036 1951)">Requires Xcode 16 or greater</text>
  <text id="descriptive-name" style="stroke:none;fill:black;font-family:sans-serif;font-size:13;text-anchor:end;" transform="matrix(1 0 0 1 3036 1969)">Generated from custom.mesh.radio</text>
  <text style="stroke:none;fill:black;font-family:sans-serif;font-size:13;text-anchor:end;" transform="matrix(1 0 0 1 3036 1987)">Typeset at 100.0 points</text>
  <text style="stroke:none;fill:black;font-family:sans-serif;font-size:13;" transform="matrix(1 0 0 1 263 726)">Small</text>
  <text style="stroke:none;fill:black;font-family:sans-serif;font-size:13;" transform="matrix(1 0 0 1 263 1156)">Medium</text>
  <text style="stroke:none;fill:black;font-family:sans-serif;font-size:13;" transform="matrix(1 0 0 1 263 1586)">Large</text>
 </g>
 <g id="Guides">
  <g id="H-reference" style="fill:#27AAE1;stroke:none;" transform="matrix(1 0 0 1 339 696)">
   <path d="M0.993654 0L3.63775 0L29.3281-67.1323L30.0303-67.1323L30.0303-70.459L28.1226-70.459ZM11.6885-24.4799L46.9815-24.4799L46.2315-26.7285L12.4385-26.7285ZM55.1196 0L57.7637 0L30.6382-70.459L29.4326-70.459L29.4326-67.1323Z"/>
  </g>
  <line id="Baseline-S" style="fill:none;stroke:#27AAE1;opacity:1;stroke-width:0.5;" x1="263" x2="3036" y1="696" y2="696"/>
  <line id="Capline-S" style="fill:none;stroke:#27AAE1;opacity:1;stroke-width:0.5;" x1="263" x2="3036" y1="625.541" y2="625.541"/>
  <g id="H-reference" style="fill:#27AAE1;stroke:none;" transform="matrix(1 0 0 1 339 1126)">
   <path d="M0.993654 0L3.63775 0L29.3281-67.1323L30.0303-67.1323L30.0303-70.459L28.1226-70.459ZM11.6885-24.4799L46.9815-24.4799L46.2315-26.7285L12.4385-26.7285ZM55.1196 0L57.7637 0L30.6382-70.459L29.4326-70.459L29.4326-67.1323Z"/>
  </g>
  <line id="Baseline-M" style="fill:none;stroke:#27AAE1;opacity:1;stroke-width:0.5;" x1="263" x2="3036" y1="1126" y2="1126"/>
  <line id="Capline-M" style="fill:none;stroke:#27AAE1;opacity:1;stroke-width:0.5;" x1="263" x2="3036" y1="1055.54" y2="1055.54"/>
  <g id="H-reference" style="fill:#27AAE1;stroke:none;" transform="matrix(1 0 0 1 339 1556)">
   <path d="M0.993654 0L3.63775 0L29.3281-67.1323L30.0303-67.1323L30.0303-70.459L28.1226-70.459ZM11.6885-24.4799L46.9815-24.4799L46.2315-26.7285L12.4385-26.7285ZM55.1196 0L57.7637 0L30.6382-70.459L29.4326-70.459L29.4326-67.1323Z"/>
  </g>
  <line id="Baseline-L" style="fill:none;stroke:#27AAE1;opacity:1;stroke-width:0.5;" x1="263" x2="3036" y1="1556" y2="1556"/>
  <line id="Capline-L" style="fill:none;stroke:#27AAE1;opacity:1;stroke-width:0.5;" x1="263" x2="3036" y1="1485.54" y2="1485.54"/>
  <line id="left-margin-Ultralight-S" style="fill:none;stroke:#00AEEF;stroke-width:0.5;opacity:1.0;" x1="515.423" x2="515.423" y1="600.785" y2="720.121"/>
  <line id="right-margin-Ultralight-S" style="fill:none;stroke:#00AEEF;stroke-width:0.5;opacity:1.0;" x1="604" x2="604" y1="600.785" y2="720.121"/>
  <line id="left-margin-Regular-S" style="fill:none;stroke:#00AEEF;stroke-width:0.5;opacity:1.0;" x1="1405.56" x2="1405.56" y1="600.785" y2="720.121"/>
  <line id="right-margin-Regular-S" style="fill:none;stroke:#00AEEF;stroke-width:0.5;opacity:1.0;" x1="1494.13" x2="1494.13" y1="600.785" y2="720.121"/>
  <line id="left-margin-Black-S" style="fill:none;stroke:#00AEEF;stroke-width:0.5;opacity:1.0;" x1="2889.11" x2="2889.11" y1="600.785" y2="720.121"/>
  <line id="right-margin-Black-S" style="fill:none;stroke:#00AEEF;stroke-width:0.5;opacity:1.0;" x1="2977.69" x2="2977.69" y1="600.785" y2="720.121"/>
 </g>
 <g id="Symbols">
  <g id="Black-S" transform="matrix(1 0 0 1 2889.11 696)">
   <path class="monochrome-0 multicolor-0:tintColor hierarchical-0:primary SFSymbolsPreviewWireframe" fill-rule="nonzero" d="M32.00 -47.00L56.00 -47.00A7.00 7.00 0 0 1 63.00 -40.00L63.00 -11.00A7.00 7.00 0 0 1 56.00 -4.00L32.00 -4.00A7.00 7.00 0 0 1 25.00 -11.00L25.00 -40.00A7.00 7.00 0 0 1 32.00 -47.00ZM32.00 -44.20A4.20 4.20 0 0 0 27.80 -40.00L27.80 -11.00A4.20 4.20 0 0 0 32.00 -6.80L56.00 -6.80A4.20 4.20 0 0 0 60.20 -11.00L60.20 -40.00A4.20 4.20 0 0 0 56.00 -44.20ZM33.00 -43.00L55.00 -43.00A3.00 3.00 0 0 1 58.00 -40.00L58.00 -33.00A3.00 3.00 0 0 1 55.00 -30.00L33.00 -30.00A3.00 3.00 0 0 1 30.00 -33.00L30.00 -40.00A3.00 3.00 0 0 1 33.00 -43.00ZM33.00 -41.10A1.10 1.10 0 0 0 31.90 -40.00L31.90 -33.00A1.10 1.10 0 0 0 33.00 -31.90L55.00 -31.90A1.10 1.10 0 0 0 56.10 -33.00L56.10 -40.00A1.10 1.10 0 0 0 55.00 -41.10ZM31.40 -24.50A2.60 2.60 0 1 0 36.60 -24.50A2.60 2.60 0 1 0 31.40 -24.50ZM41.40 -24.50A2.60 2.60 0 1 0 46.60 -24.50A2.60 2.60 0 1 0 41.40 -24.50ZM51.40 -24.50A2.60 2.60 0 1 0 56.60 -24.50A2.60 2.60 0 1 0 51.40 -24.50ZM31.40 -13.50A2.60 2.60 0 1 0 36.60 -13.50A2.60 2.60 0 1 0 31.40 -13.50ZM41.40 -13.50A2.60 2.60 0 1 0 46.60 -13.50A2.60 2.60 0 1 0 41.40 -13.50ZM51.40 -13.50A2.60 2.60 0 1 0 56.60 -13.50A2.60 2.60 0 1 0 51.40 -13.50ZM37.80 -55.00L38.20 -55.00A2.20 2.20 0 0 1 40.40 -52.80L40.40 -47.20A2.20 2.20 0 0 1 38.20 -45.00L37.80 -45.00A2.20 2.20 0 0 1 35.60 -47.20L35.60 -52.80A2.20 2.20 0 0 1 37.80 -55.00Z"/>
  </g>
  <g id="Regular-S" transform="matrix(1 0 0 1 1405.56 696)">
   <path class="monochrome-0 multicolor-0:tintColor hierarchical-0:primary SFSymbolsPreviewWireframe" fill-rule="nonzero" d="M32.00 -47.00L56.00 -47.00A7.00 7.00 0 0 1 63.00 -40.00L63.00 -11.00A7.00 7.00 0 0 1 56.00 -4.00L32.00 -4.00A7.00 7.00 0 0 1 25.00 -11.00L25.00 -40.00A7.00 7.00 0 0 1 32.00 -47.00ZM32.00 -44.20A4.20 4.20 0 0 0 27.80 -40.00L27.80 -11.00A4.20 4.20 0 0 0 32.00 -6.80L56.00 -6.80A4.20 4.20 0 0 0 60.20 -11.00L60.20 -40.00A4.20 4.20 0 0 0 56.00 -44.20ZM33.00 -43.00L55.00 -43.00A3.00 3.00 0 0 1 58.00 -40.00L58.00 -33.00A3.00 3.00 0 0 1 55.00 -30.00L33.00 -30.00A3.00 3.00 0 0 1 30.00 -33.00L30.00 -40.00A3.00 3.00 0 0 1 33.00 -43.00ZM33.00 -41.10A1.10 1.10 0 0 0 31.90 -40.00L31.90 -33.00A1.10 1.10 0 0 0 33.00 -31.90L55.00 -31.90A1.10 1.10 0 0 0 56.10 -33.00L56.10 -40.00A1.10 1.10 0 0 0 55.00 -41.10ZM31.40 -24.50A2.60 2.60 0 1 0 36.60 -24.50A2.60 2.60 0 1 0 31.40 -24.50ZM41.40 -24.50A2.60 2.60 0 1 0 46.60 -24.50A2.60 2.60 0 1 0 41.40 -24.50ZM51.40 -24.50A2.60 2.60 0 1 0 56.60 -24.50A2.60 2.60 0 1 0 51.40 -24.50ZM31.40 -13.50A2.60 2.60 0 1 0 36.60 -13.50A2.60 2.60 0 1 0 31.40 -13.50ZM41.40 -13.50A2.60 2.60 0 1 0 46.60 -13.50A2.60 2.60 0 1 0 41.40 -13.50ZM51.40 -13.50A2.60 2.60 0 1 0 56.60 -13.50A2.60 2.60 0 1 0 51.40 -13.50ZM37.80 -55.00L38.20 -55.00A2.20 2.20 0 0 1 40.40 -52.80L40.40 -47.20A2.20 2.20 0 0 1 38.20 -45.00L37.80 -45.00A2.20 2.20 0 0 1 35.60 -47.20L35.60 -52.80A2.20 2.20 0 0 1 37.80 -55.00Z"/>
  </g>
  <g id="Ultralight-S" transform="matrix(1 0 0 1 515.423 696)">
   <path class="monochrome-0 multicolor-0:tintColor hierarchical-0:primary SFSymbolsPreviewWireframe" fill-rule="nonzero" d="M32.00 -47.00L56.00 -47.00A7.00 7.00 0 0 1 63.00 -40.00L63.00 -11.00A7.00 7.00 0 0 1 56.00 -4.00L32.00 -4.00A7.00 7.00 0 0 1 25.00 -11.00L25.00 -40.00A7.00 7.00 0 0 1 32.00 -47.00ZM32.00 -44.20A4.20 4.20 0 0 0 27.80 -40.00L27.80 -11.00A4.20 4.20 0 0 0 32.00 -6.80L56.00 -6.80A4.20 4.20 0 0 0 60.20 -11.00L60.20 -40.00A4.20 4.20 0 0 0 56.00 -44.20ZM33.00 -43.00L55.00 -43.00A3.00 3.00 0 0 1 58.00 -40.00L58.00 -33.00A3.00 3.00 0 0 1 55.00 -30.00L33.00 -30.00A3.00 3.00 0 0 1 30.00 -33.00L30.00 -40.00A3.00 3.00 0 0 1 33.00 -43.00ZM33.00 -41.10A1.10 1.10 0 0 0 31.90 -40.00L31.90 -33.00A1.10 1.10 0 0 0 33.00 -31.90L55.00 -31.90A1.10 1.10 0 0 0 56.10 -33.00L56.10 -40.00A1.10 1.10 0 0 0 55.00 -41.10ZM31.40 -24.50A2.60 2.60 0 1 0 36.60 -24.50A2.60 2.60 0 1 0 31.40 -24.50ZM41.40 -24.50A2.60 2.60 0 1 0 46.60 -24.50A2.60 2.60 0 1 0 41.40 -24.50ZM51.40 -24.50A2.60 2.60 0 1 0 56.60 -24.50A2.60 2.60 0 1 0 51.40 -24.50ZM31.40 -13.50A2.60 2.60 0 1 0 36.60 -13.50A2.60 2.60 0 1 0 31.40 -13.50ZM41.40 -13.50A2.60 2.60 0 1 0 46.60 -13.50A2.60 2.60 0 1 0 41.40 -13.50ZM51.40 -13.50A2.60 2.60 0 1 0 56.60 -13.50A2.60 2.60 0 1 0 51.40 -13.50ZM37.80 -55.00L38.20 -55.00A2.20 2.20 0 0 1 40.40 -52.80L40.40 -47.20A2.20 2.20 0 0 1 38.20 -45.00L37.80 -45.00A2.20 2.20 0 0 1 35.60 -47.20L35.60 -52.80A2.20 2.20 0 0 1 37.80 -55.00Z"/>
  </g>
 </g>
</svg>
